<?xml version="1.0" encoding="UTF-8"?>
<svg id="logo" xmlns="http://www.w3.org/2000/svg" viewBox="0 0 100 13.91">
  <defs>
    <style>
      .cls-1 {
        fill: #fff;
      }
    </style>
  </defs>
  <path id="squarespace-logo-horizontal" class="cls-1" d="m35.93,6.69v-.02c0-1.96-1.45-3.65-3.61-3.65s-3.63,1.71-3.63,3.67v.02c0,1.96,1.45,3.65,3.61,3.65.88,0,1.64-.28,2.24-.76l.93.85.55-.6-.94-.78c.55-.65.85-1.49.85-2.38Zm-1.45,1.85l-1.31-1.19-.54.6,1.32,1.12c-.44.33-1,.54-1.63.54-1.62,0-2.8-1.32-2.8-2.93v-.02c0-1.61,1.16-2.91,2.78-2.91s2.8,1.32,2.8,2.93v.02c0,.7-.23,1.34-.62,1.83Zm8.14-1.28c0,1.55-.83,2.34-2.14,2.34s-2.17-.86-2.17-2.39V3.14h-.8v4.13c0,2.01,1.2,3.08,2.95,3.08s2.96-1.07,2.96-3.14V3.14h-.8v4.13Zm47.98,2.35c-1.56,0-2.75-1.29-2.75-2.93v-.02c0-1.63,1.17-2.91,2.75-2.91.96,0,1.63.41,2.23.97l.55-.59c-.71-.67-1.48-1.13-2.77-1.13-2.09,0-3.59,1.66-3.59,3.67v.02c0,2.04,1.51,3.65,3.56,3.65,1.29,0,2.1-.5,2.84-1.25l-.53-.52c-.68.65-1.32,1.02-2.29,1.02Zm5.02-.11v-2.48h3.87v-.73h-3.87v-2.42h4.33v-.73h-5.13v7.1h5.18v-.73h-4.38Zm-19.28-6.37h-2.66v7.1h.8v-2.5h1.72c1.51,0,2.79-.79,2.79-2.32v-.02c0-1.4-1.05-2.25-2.66-2.25Zm1.85,2.3c0,.93-.77,1.56-1.95,1.56h-1.75v-3.12h1.79c1.15,0,1.91.53,1.91,1.54v.02Zm-53.12.86c-1.56-.33-1.93-.71-1.93-1.38v-.02c0-.64.59-1.15,1.51-1.15.73,0,1.39.23,2.05.77l.47-.62c-.72-.58-1.46-.87-2.49-.87-1.35,0-2.33.82-2.33,1.94v.02c0,1.17.75,1.69,2.38,2.05,1.49.31,1.85.69,1.85,1.35v.02c0,.7-.63,1.21-1.58,1.21s-1.69-.33-2.43-1l-.5.59c.85.76,1.77,1.14,2.9,1.14,1.41,0,2.42-.79,2.42-2.01v-.02c0-1.09-.73-1.66-2.31-2.01Zm36.14.72h3.87v-.73h-3.87v-2.42h4.33v-.73h-5.13v7.1h5.18v-.73h-4.38v-2.48Zm8.54-.72c-1.56-.33-1.93-.71-1.93-1.38v-.02c0-.64.59-1.15,1.51-1.15.73,0,1.39.23,2.05.77l.47-.62c-.72-.58-1.46-.87-2.49-.87-1.35,0-2.33.82-2.33,1.94v.02c0,1.17.75,1.69,2.38,2.05,1.49.31,1.84.69,1.84,1.35v.02c0,.7-.63,1.21-1.58,1.21s-1.69-.33-2.43-1l-.5.59c.85.76,1.77,1.14,2.9,1.14,1.41,0,2.42-.79,2.42-2.01v-.02c0-1.09-.73-1.66-2.31-2.01Zm-22.05-3.21l-3.23,7.15h.82l.84-1.88h3.86l.83,1.88h.86l-3.23-7.15h-.75Zm-1.26,4.55l1.62-3.62,1.61,3.62h-3.23Zm35.94-4.55l-3.23,7.15h.82l.84-1.88h3.86l.83,1.88h.86l-3.23-7.15h-.75Zm-1.26,4.55l1.62-3.62,1.61,3.62h-3.23Zm-22.43-2.37v-.02c0-.56-.2-1.05-.55-1.4-.45-.45-1.15-.71-2.02-.71h-3.05v7.1h.8v-2.76h2.03l2.06,2.76h.98l-2.18-2.9c1.12-.2,1.93-.89,1.93-2.07Zm-4.82,1.49v-2.88h2.19c1.14,0,1.81.53,1.81,1.4v.02c0,.91-.76,1.46-1.83,1.46h-2.18ZM2.78,7.55c.33.33.86.33,1.19,0l5.37-5.37c.66-.66,1.73-.66,2.39,0,.33.33.86.33,1.19,0,.33-.33.33-.86,0-1.19-1.32-1.32-3.46-1.32-4.77,0L2.78,6.36c-.33.33-.33.86,0,1.19Zm8.36-3.58c.33-.33.33-.86,0-1.19-.33-.33-.86-.33-1.19,0l-5.37,5.37c-.66.66-1.73.66-2.39,0-.66-.66-.66-1.73,0-2.39L7.45.5c-.66-.66-1.73-.66-2.39,0L.99,4.57c-1.32,1.32-1.32,3.46,0,4.77,1.32,1.32,3.46,1.32,4.77,0l5.37-5.37Zm.6.6l-5.37,5.37c-.33.33-.33.86,0,1.19.33.33.86.33,1.19,0l5.37-5.37c.66-.66,1.73-.66,2.39,0,.66.66.66,1.73,0,2.39l-5.27,5.27c.66.66,1.73.66,2.39,0l4.08-4.07c1.32-1.32,1.32-3.46,0-4.77-1.32-1.32-3.46-1.32-4.77,0Zm2.98,1.79c-.33-.33-.86-.33-1.19,0l-5.37,5.37c-.66.66-1.73.66-2.39,0-.33-.33-.86-.33-1.19,0-.33.33-.33.86,0,1.19,1.32,1.32,3.46,1.32,4.77,0l5.37-5.37c.33-.33.33-.86,0-1.19Z"/>
</svg>